<mxfile host="65bd71144e">
    <diagram id="eIIZ65BtrPO-jCZt6vpz" name="システム概要図">
        <mxGraphModel dx="233" dy="573" grid="1" gridSize="10" guides="1" tooltips="1" connect="1" arrows="1" fold="1" page="1" pageScale="1" pageWidth="827" pageHeight="1169" background="#ffffff" math="0" shadow="0">
            <root>
                <mxCell id="0"/>
                <mxCell id="1" parent="0"/>
                <mxCell id="U_GUKE6Uh-_93wMJEk7A-2" value="&lt;b&gt;&lt;font style=&quot;font-size: 16px;&quot;&gt;ユーザー&lt;/font&gt;&lt;/b&gt;" style="shape=umlActor;verticalLabelPosition=bottom;verticalAlign=top;html=1;outlineConnect=0;" parent="1" vertex="1">
                    <mxGeometry x="50" y="189" width="30" height="60" as="geometry"/>
                </mxCell>
                <mxCell id="U_GUKE6Uh-_93wMJEk7A-3" value="" style="ellipse;shape=cloud;whiteSpace=wrap;html=1;fillColor=#d5e8d4;strokeColor=#82b366;" parent="1" vertex="1">
                    <mxGeometry x="540" y="100" width="280" height="250" as="geometry"/>
                </mxCell>
                <mxCell id="U_GUKE6Uh-_93wMJEk7A-5" value="&lt;b&gt;&lt;font style=&quot;font-size: 16px;&quot;&gt;ブロックチェーン&lt;/font&gt;&lt;/b&gt;" style="text;html=1;align=center;verticalAlign=middle;whiteSpace=wrap;rounded=0;" parent="1" vertex="1">
                    <mxGeometry x="600" y="160" width="160" height="30" as="geometry"/>
                </mxCell>
                <mxCell id="U_GUKE6Uh-_93wMJEk7A-6" value="&lt;span style=&quot;font-size: 16px;&quot;&gt;&lt;b&gt;開発者&lt;/b&gt;&lt;/span&gt;" style="shape=umlActor;verticalLabelPosition=bottom;verticalAlign=top;html=1;outlineConnect=0;" parent="1" vertex="1">
                    <mxGeometry x="50" y="330" width="30" height="60" as="geometry"/>
                </mxCell>
                <mxCell id="U_GUKE6Uh-_93wMJEk7A-8" value="&lt;b&gt;&lt;font style=&quot;font-size: 16px;&quot;&gt;サーキット&lt;/font&gt;&lt;/b&gt;" style="rounded=0;whiteSpace=wrap;html=1;fillColor=#e1d5e7;strokeColor=#9673a6;" parent="1" vertex="1">
                    <mxGeometry x="160" y="320" width="100" height="80" as="geometry"/>
                </mxCell>
                <mxCell id="U_GUKE6Uh-_93wMJEk7A-11" value="&lt;b&gt;&lt;font style=&quot;color: rgb(255, 255, 255);&quot;&gt;デプロイ済み&lt;/font&gt;&lt;/b&gt;&lt;div&gt;&lt;b&gt;&lt;font style=&quot;color: rgb(255, 255, 255);&quot;&gt;コントラクト&lt;/font&gt;&lt;/b&gt;&lt;/div&gt;" style="shape=cube;whiteSpace=wrap;html=1;boundedLbl=1;backgroundOutline=1;darkOpacity=0.05;darkOpacity2=0.1;fillColor=#60a917;fontColor=#ffffff;strokeColor=#2D7600;flipH=1;fontSize=16;" parent="1" vertex="1">
                    <mxGeometry x="610" y="210" width="130" height="80" as="geometry"/>
                </mxCell>
                <mxCell id="U_GUKE6Uh-_93wMJEk7A-12" value="&lt;h1 style=&quot;margin-top: 0px;&quot;&gt;検証＆ミント&lt;/h1&gt;&lt;p&gt;ブロックチェーン上でゼロ知識証明の検証とNFTのミントが実行される&lt;/p&gt;&lt;p&gt;自前でサーバーを建てる必要なし！！&lt;/p&gt;" style="text;html=1;whiteSpace=wrap;overflow=hidden;rounded=0;" parent="1" vertex="1">
                    <mxGeometry x="610" y="350" width="210" height="120" as="geometry"/>
                </mxCell>
                <mxCell id="U_GUKE6Uh-_93wMJEk7A-13" value="&lt;b&gt;&lt;font style=&quot;font-size: 16px;&quot;&gt;フロントエンド&lt;/font&gt;&lt;/b&gt;" style="rounded=0;whiteSpace=wrap;html=1;fillColor=#fff2cc;strokeColor=#d6b656;" parent="1" vertex="1">
                    <mxGeometry x="240" y="190" width="120" height="60" as="geometry"/>
                </mxCell>
                <mxCell id="U_GUKE6Uh-_93wMJEk7A-14" value="" style="endArrow=classic;html=1;strokeWidth=3;entryX=0;entryY=0.5;entryDx=0;entryDy=0;" parent="1" source="U_GUKE6Uh-_93wMJEk7A-2" target="U_GUKE6Uh-_93wMJEk7A-13" edge="1">
                    <mxGeometry width="50" height="50" relative="1" as="geometry">
                        <mxPoint x="460" y="310" as="sourcePoint"/>
                        <mxPoint x="510" y="260" as="targetPoint"/>
                    </mxGeometry>
                </mxCell>
                <mxCell id="U_GUKE6Uh-_93wMJEk7A-15" value="" style="endArrow=classic;html=1;strokeWidth=3;entryX=0;entryY=0;entryDx=130;entryDy=50;entryPerimeter=0;exitX=1;exitY=0.5;exitDx=0;exitDy=0;edgeStyle=orthogonalEdgeStyle;" parent="1" source="U_GUKE6Uh-_93wMJEk7A-13" target="U_GUKE6Uh-_93wMJEk7A-11" edge="1">
                    <mxGeometry width="50" height="50" relative="1" as="geometry">
                        <mxPoint x="90" y="229" as="sourcePoint"/>
                        <mxPoint x="250" y="230" as="targetPoint"/>
                        <Array as="points">
                            <mxPoint x="520" y="220"/>
                            <mxPoint x="520" y="260"/>
                        </Array>
                    </mxGeometry>
                </mxCell>
                <mxCell id="U_GUKE6Uh-_93wMJEk7A-16" value="" style="group" parent="1" vertex="1" connectable="0">
                    <mxGeometry x="340" y="310" width="140" height="100" as="geometry"/>
                </mxCell>
                <mxCell id="U_GUKE6Uh-_93wMJEk7A-9" value="&lt;b&gt;&lt;font style=&quot;font-size: 16px;&quot;&gt;サーキット用の&lt;br&gt;スマコン&lt;/font&gt;&lt;/b&gt;" style="rounded=0;whiteSpace=wrap;html=1;fillColor=#dae8fc;strokeColor=#6c8ebf;" parent="U_GUKE6Uh-_93wMJEk7A-16" vertex="1">
                    <mxGeometry width="140" height="50" as="geometry"/>
                </mxCell>
                <mxCell id="U_GUKE6Uh-_93wMJEk7A-10" value="&lt;span style=&quot;font-size: 16px;&quot;&gt;&lt;b&gt;NFTのスマコン&lt;/b&gt;&lt;/span&gt;" style="rounded=0;whiteSpace=wrap;html=1;fillColor=#f8cecc;strokeColor=#b85450;" parent="U_GUKE6Uh-_93wMJEk7A-16" vertex="1">
                    <mxGeometry y="50" width="140" height="50" as="geometry"/>
                </mxCell>
                <mxCell id="U_GUKE6Uh-_93wMJEk7A-17" value="" style="endArrow=classic;html=1;strokeWidth=3;entryX=0;entryY=0;entryDx=130;entryDy=50;entryPerimeter=0;exitX=1;exitY=0;exitDx=0;exitDy=0;edgeStyle=orthogonalEdgeStyle;" parent="1" source="U_GUKE6Uh-_93wMJEk7A-10" target="U_GUKE6Uh-_93wMJEk7A-11" edge="1">
                    <mxGeometry width="50" height="50" relative="1" as="geometry">
                        <mxPoint x="370" y="230" as="sourcePoint"/>
                        <mxPoint x="620" y="270" as="targetPoint"/>
                        <Array as="points">
                            <mxPoint x="520" y="360"/>
                            <mxPoint x="520" y="260"/>
                        </Array>
                    </mxGeometry>
                </mxCell>
                <mxCell id="U_GUKE6Uh-_93wMJEk7A-18" value="" style="endArrow=classic;html=1;strokeWidth=3;entryX=0;entryY=0;entryDx=0;entryDy=0;exitX=1;exitY=0.5;exitDx=0;exitDy=0;" parent="1" source="U_GUKE6Uh-_93wMJEk7A-8" target="U_GUKE6Uh-_93wMJEk7A-10" edge="1">
                    <mxGeometry width="50" height="50" relative="1" as="geometry">
                        <mxPoint x="90" y="229" as="sourcePoint"/>
                        <mxPoint x="250" y="230" as="targetPoint"/>
                    </mxGeometry>
                </mxCell>
                <mxCell id="U_GUKE6Uh-_93wMJEk7A-19" value="" style="endArrow=classic;html=1;strokeWidth=3;exitX=0.5;exitY=0.5;exitDx=0;exitDy=0;exitPerimeter=0;" parent="1" source="U_GUKE6Uh-_93wMJEk7A-6" edge="1">
                    <mxGeometry width="50" height="50" relative="1" as="geometry">
                        <mxPoint x="270" y="370" as="sourcePoint"/>
                        <mxPoint x="160" y="360" as="targetPoint"/>
                    </mxGeometry>
                </mxCell>
                <mxCell id="U_GUKE6Uh-_93wMJEk7A-20" value="パスワードを入力" style="text;html=1;align=center;verticalAlign=middle;whiteSpace=wrap;rounded=0;fontSize=16;fontStyle=1" parent="1" vertex="1">
                    <mxGeometry x="95" y="155" width="130" height="30" as="geometry"/>
                </mxCell>
                <mxCell id="U_GUKE6Uh-_93wMJEk7A-21" value="検証用のデータを引数にメソッドを呼び出す" style="text;html=1;align=left;verticalAlign=middle;whiteSpace=wrap;rounded=0;fontSize=16;fontStyle=1" parent="1" vertex="1">
                    <mxGeometry x="380" y="155" width="140" height="30" as="geometry"/>
                </mxCell>
                <mxCell id="U_GUKE6Uh-_93wMJEk7A-22" value="サーキットを作成" style="text;html=1;align=center;verticalAlign=middle;whiteSpace=wrap;rounded=0;fontSize=16;fontStyle=1" parent="1" vertex="1">
                    <mxGeometry x="90" y="430" width="130" height="30" as="geometry"/>
                </mxCell>
                <mxCell id="U_GUKE6Uh-_93wMJEk7A-23" value="サーキットを&lt;br&gt;コンパイル&amp;amp;変換" style="text;html=1;align=center;verticalAlign=middle;whiteSpace=wrap;rounded=0;fontSize=16;fontStyle=1" parent="1" vertex="1">
                    <mxGeometry x="240" y="430" width="130" height="30" as="geometry"/>
                </mxCell>
                <mxCell id="U_GUKE6Uh-_93wMJEk7A-24" value="デプロイ" style="text;html=1;align=center;verticalAlign=middle;whiteSpace=wrap;rounded=0;fontSize=16;fontStyle=1" parent="1" vertex="1">
                    <mxGeometry x="490" y="380" width="90" height="30" as="geometry"/>
                </mxCell>
                <mxCell id="U_GUKE6Uh-_93wMJEk7A-26" value="&lt;font style=&quot;font-size: 24px;&quot;&gt;システム概要図&lt;/font&gt;" style="text;html=1;align=center;verticalAlign=middle;whiteSpace=wrap;rounded=0;fontSize=16;fontStyle=1" parent="1" vertex="1">
                    <mxGeometry y="20" width="200" height="50" as="geometry"/>
                </mxCell>
            </root>
        </mxGraphModel>
    </diagram>
    <diagram name="ZK-NFT System Architecture" id="zk-nft-system">
        <mxGraphModel dx="561" dy="573" grid="1" gridSize="10" guides="1" tooltips="1" connect="1" arrows="1" fold="1" page="1" pageScale="1" pageWidth="1169" pageHeight="827" math="0" shadow="0">
            <root>
                <mxCell id="0"/>
                <mxCell id="1" parent="0"/>
                <mxCell id="user" value="User" style="shape=umlActor;verticalLabelPosition=bottom;verticalAlign=top;html=1;outlineConnect=0;fillColor=#e1d5e7;strokeColor=#9673a6;" parent="1" vertex="1">
                    <mxGeometry x="80" y="50" width="30" height="60" as="geometry"/>
                </mxCell>
                <mxCell id="frontend-cluster" value="Frontend (Next.js)" style="swimlane;whiteSpace=wrap;html=1;fillColor=#d5e8d4;strokeColor=#82b366;" parent="1" vertex="1">
                    <mxGeometry x="200" y="30" width="280" height="120" as="geometry"/>
                </mxCell>
                <mxCell id="nextjs" value="Next.js App&#xa;(Dashboard UI)" style="rounded=1;whiteSpace=wrap;html=1;fillColor=#fff2cc;strokeColor=#d6b656;" parent="frontend-cluster" vertex="1">
                    <mxGeometry x="20" y="30" width="80" height="60" as="geometry"/>
                </mxCell>
                <mxCell id="privy" value="Privy Auth&#xa;(Wallet Auth)" style="rounded=1;whiteSpace=wrap;html=1;fillColor=#fff2cc;strokeColor=#d6b656;" parent="frontend-cluster" vertex="1">
                    <mxGeometry x="120" y="30" width="70" height="60" as="geometry"/>
                </mxCell>
                <mxCell id="biconomy" value="Biconomy&#xa;(Gasless Tx)" style="rounded=1;whiteSpace=wrap;html=1;fillColor=#fff2cc;strokeColor=#d6b656;" parent="frontend-cluster" vertex="1">
                    <mxGeometry x="200" y="30" width="70" height="60" as="geometry"/>
                </mxCell>
                <mxCell id="zk-cluster" value="Zero Knowledge Proof System" style="swimlane;whiteSpace=wrap;html=1;fillColor=#ffe6cc;strokeColor=#d79b00;" parent="1" vertex="1">
                    <mxGeometry x="540" y="30" width="300" height="120" as="geometry"/>
                </mxCell>
                <mxCell id="circuit" value="Circom Circuit&#xa;(PasswordHash.circom)" style="rounded=1;whiteSpace=wrap;html=1;fillColor=#f8cecc;strokeColor=#b85450;" parent="zk-cluster" vertex="1">
                    <mxGeometry x="20" y="30" width="80" height="60" as="geometry"/>
                </mxCell>
                <mxCell id="zkproof" value="ZK Proof&#xa;Generation&#xa;(snarkjs)" style="rounded=1;whiteSpace=wrap;html=1;fillColor=#f8cecc;strokeColor=#b85450;" parent="zk-cluster" vertex="1">
                    <mxGeometry x="120" y="30" width="70" height="60" as="geometry"/>
                </mxCell>
                <mxCell id="verifier" value="Verifier&#xa;Contract" style="rounded=1;whiteSpace=wrap;html=1;fillColor=#f8cecc;strokeColor=#b85450;" parent="zk-cluster" vertex="1">
                    <mxGeometry x="210" y="30" width="70" height="60" as="geometry"/>
                </mxCell>
                <mxCell id="contract-cluster" value="Smart Contract (Hardhat)" style="swimlane;whiteSpace=wrap;html=1;fillColor=#dae8fc;strokeColor=#6c8ebf;" parent="1" vertex="1">
                    <mxGeometry x="300" y="200" width="250" height="100" as="geometry"/>
                </mxCell>
                <mxCell id="zknft" value="ZKNFT Contract&#xa;(ERC721 + ZK)" style="rounded=1;whiteSpace=wrap;html=1;fillColor=#e1d5e7;strokeColor=#9673a6;" parent="contract-cluster" vertex="1">
                    <mxGeometry x="20" y="30" width="100" height="60" as="geometry"/>
                </mxCell>
                <mxCell id="interface" value="IPasswordHash&#xa;Verifier&#xa;Interface" style="rounded=1;whiteSpace=wrap;html=1;fillColor=#e1d5e7;strokeColor=#9673a6;" parent="contract-cluster" vertex="1">
                    <mxGeometry x="140" y="30" width="90" height="60" as="geometry"/>
                </mxCell>
                <mxCell id="blockchain" value="Base Sepolia&#xa;Testnet" style="shape=cylinder3;whiteSpace=wrap;html=1;boundedLbl=1;backgroundOutline=1;size=15;fillColor=#f0f0f0;strokeColor=#666666;" parent="1" vertex="1">
                    <mxGeometry x="370" y="350" width="100" height="80" as="geometry"/>
                </mxCell>
                <mxCell id="marketplace" value="Rarible Testnet&#xa;(NFT Marketplace)" style="ellipse;whiteSpace=wrap;html=1;fillColor=#d5e8d4;strokeColor=#82b366;" parent="1" vertex="1">
                    <mxGeometry x="200" y="450" width="120" height="80" as="geometry"/>
                </mxCell>
                <mxCell id="flow1" value="" style="endArrow=classic;html=1;rounded=0;" parent="1" source="user" target="nextjs" edge="1">
                    <mxGeometry width="50" height="50" relative="1" as="geometry">
                        <mxPoint x="400" y="300" as="sourcePoint"/>
                        <mxPoint x="450" y="250" as="targetPoint"/>
                    </mxGeometry>
                </mxCell>
                <mxCell id="flow1-label" value="1. Login &amp; Password Input" style="text;html=1;align=center;verticalAlign=middle;resizable=0;points=[];autosize=1;strokeColor=none;fillColor=none;" parent="1" vertex="1">
                    <mxGeometry x="120" y="40" width="150" height="30" as="geometry"/>
                </mxCell>
                <mxCell id="flow2" value="" style="endArrow=classic;html=1;rounded=0;" parent="1" source="nextjs" target="circuit" edge="1">
                    <mxGeometry width="50" height="50" relative="1" as="geometry">
                        <mxPoint x="400" y="300" as="sourcePoint"/>
                        <mxPoint x="450" y="250" as="targetPoint"/>
                    </mxGeometry>
                </mxCell>
                <mxCell id="flow2-label" value="2. Password Hash" style="text;html=1;align=center;verticalAlign=middle;resizable=0;points=[];autosize=1;strokeColor=none;fillColor=none;" parent="1" vertex="1">
                    <mxGeometry x="380" y="40" width="100" height="30" as="geometry"/>
                </mxCell>
                <mxCell id="flow3" value="" style="endArrow=classic;html=1;rounded=0;" parent="1" source="circuit" target="zkproof" edge="1">
                    <mxGeometry width="50" height="50" relative="1" as="geometry">
                        <mxPoint x="400" y="300" as="sourcePoint"/>
                        <mxPoint x="450" y="250" as="targetPoint"/>
                    </mxGeometry>
                </mxCell>
                <mxCell id="flow4" value="" style="endArrow=classic;html=1;rounded=0;" parent="1" source="zkproof" target="verifier" edge="1">
                    <mxGeometry width="50" height="50" relative="1" as="geometry">
                        <mxPoint x="400" y="300" as="sourcePoint"/>
                        <mxPoint x="450" y="250" as="targetPoint"/>
                    </mxGeometry>
                </mxCell>
                <mxCell id="flow5" value="" style="endArrow=classic;html=1;rounded=0;" parent="1" source="verifier" target="zknft" edge="1">
                    <mxGeometry width="50" height="50" relative="1" as="geometry">
                        <mxPoint x="400" y="300" as="sourcePoint"/>
                        <mxPoint x="450" y="250" as="targetPoint"/>
                    </mxGeometry>
                </mxCell>
                <mxCell id="flow5-label" value="3. Proof Verification" style="text;html=1;align=center;verticalAlign=middle;resizable=0;points=[];autosize=1;strokeColor=none;fillColor=none;" parent="1" vertex="1">
                    <mxGeometry x="600" y="160" width="110" height="30" as="geometry"/>
                </mxCell>
                <mxCell id="flow6" value="" style="endArrow=classic;html=1;rounded=0;" parent="1" source="zknft" target="blockchain" edge="1">
                    <mxGeometry width="50" height="50" relative="1" as="geometry">
                        <mxPoint x="400" y="300" as="sourcePoint"/>
                        <mxPoint x="450" y="250" as="targetPoint"/>
                    </mxGeometry>
                </mxCell>
                <mxCell id="flow6-label" value="4. NFT Mint" style="text;html=1;align=center;verticalAlign=middle;resizable=0;points=[];autosize=1;strokeColor=none;fillColor=none;" parent="1" vertex="1">
                    <mxGeometry x="380" y="310" width="80" height="30" as="geometry"/>
                </mxCell>
                <mxCell id="flow7" value="" style="endArrow=classic;html=1;rounded=0;" parent="1" source="blockchain" target="marketplace" edge="1">
                    <mxGeometry width="50" height="50" relative="1" as="geometry">
                        <mxPoint x="400" y="500" as="sourcePoint"/>
                        <mxPoint x="450" y="450" as="targetPoint"/>
                    </mxGeometry>
                </mxCell>
                <mxCell id="flow7-label" value="5. View NFT" style="text;html=1;align=center;verticalAlign=middle;resizable=0;points=[];autosize=1;strokeColor=none;fillColor=none;" parent="1" vertex="1">
                    <mxGeometry x="300" y="450" width="80" height="30" as="geometry"/>
                </mxCell>
                <mxCell id="flow8" value="" style="endArrow=classic;html=1;rounded=0;dashed=1;" parent="1" source="user" target="marketplace" edge="1">
                    <mxGeometry width="50" height="50" relative="1" as="geometry">
                        <mxPoint x="400" y="500" as="sourcePoint"/>
                        <mxPoint x="450" y="450" as="targetPoint"/>
                    </mxGeometry>
                </mxCell>
                <mxCell id="flow8-label" value="6. Browse NFTs" style="text;html=1;align=center;verticalAlign=middle;resizable=0;points=[];autosize=1;strokeColor=none;fillColor=none;" parent="1" vertex="1">
                    <mxGeometry x="80" y="350" width="100" height="30" as="geometry"/>
                </mxCell>
                <mxCell id="title" value="ZK-NFT System Architecture Overview" style="text;html=1;align=center;verticalAlign=middle;resizable=0;points=[];autosize=1;strokeColor=none;fillColor=none;fontSize=16;fontStyle=1" parent="1" vertex="1">
                    <mxGeometry x="400" width="280" height="30" as="geometry"/>
                </mxCell>
                <mxCell id="description" value="This system combines Zero Knowledge Proofs with NFT minting.&#xa;Users must provide a correct password to generate a valid ZK proof for NFT minting." style="text;html=1;align=left;verticalAlign=top;resizable=0;points=[];autosize=1;strokeColor=none;fillColor=none;fontSize=10;" parent="1" vertex="1">
                    <mxGeometry x="600" y="450" width="400" height="40" as="geometry"/>
                </mxCell>
                <mxCell id="tech-stack" value="Technology Stack:&#xa;• Frontend: Next.js, Privy (Auth), Biconomy (Account Abstraction)&#xa;• ZK: Circom, snarkjs, Groth16&#xa;• Smart Contract: Solidity, Hardhat, OpenZeppelin&#xa;• Blockchain: Base Sepolia Testnet&#xa;• Marketplace: Rarible Testnet" style="text;html=1;align=left;verticalAlign=top;resizable=0;points=[];autosize=1;strokeColor=none;fillColor=none;fontSize=10;" parent="1" vertex="1">
                    <mxGeometry x="600" y="500" width="400" height="100" as="geometry"/>
                </mxCell>
            </root>
        </mxGraphModel>
    </diagram>
</mxfile>